<mxfile host="app.diagrams.net" modified="2024-07-20T14:10:28.399Z" agent="Mozilla/5.0 (Windows NT 10.0; Win64; x64) AppleWebKit/537.36 (KHTML, like Gecko) Chrome/126.0.0.0 Safari/537.36" etag="zGAT60bwenZTufVD9LLS" version="24.7.2" type="device">
  <diagram name="Página-1" id="gxgXHv5PPePISQuxwMJD">
    <mxGraphModel dx="989" dy="514" grid="1" gridSize="10" guides="1" tooltips="1" connect="1" arrows="1" fold="1" page="1" pageScale="1" pageWidth="827" pageHeight="1169" math="0" shadow="0">
      <root>
        <mxCell id="0" />
        <mxCell id="1" parent="0" />
        <mxCell id="u8pDIgjHImMrnJN4NwCg-6" style="edgeStyle=orthogonalEdgeStyle;rounded=0;orthogonalLoop=1;jettySize=auto;html=1;entryX=0;entryY=0.5;entryDx=0;entryDy=0;" edge="1" parent="1" source="u8pDIgjHImMrnJN4NwCg-1" target="u8pDIgjHImMrnJN4NwCg-4">
          <mxGeometry relative="1" as="geometry" />
        </mxCell>
        <mxCell id="u8pDIgjHImMrnJN4NwCg-11" value="(0,n)" style="edgeLabel;html=1;align=center;verticalAlign=middle;resizable=0;points=[];" vertex="1" connectable="0" parent="u8pDIgjHImMrnJN4NwCg-6">
          <mxGeometry x="-0.7395" y="-1" relative="1" as="geometry">
            <mxPoint as="offset" />
          </mxGeometry>
        </mxCell>
        <mxCell id="u8pDIgjHImMrnJN4NwCg-31" style="edgeStyle=orthogonalEdgeStyle;rounded=0;orthogonalLoop=1;jettySize=auto;html=1;entryX=0.5;entryY=0;entryDx=0;entryDy=0;" edge="1" parent="1" source="u8pDIgjHImMrnJN4NwCg-1" target="u8pDIgjHImMrnJN4NwCg-30">
          <mxGeometry relative="1" as="geometry" />
        </mxCell>
        <mxCell id="u8pDIgjHImMrnJN4NwCg-35" value="(1,1)" style="edgeLabel;html=1;align=center;verticalAlign=middle;resizable=0;points=[];" vertex="1" connectable="0" parent="u8pDIgjHImMrnJN4NwCg-31">
          <mxGeometry x="-0.3724" y="2" relative="1" as="geometry">
            <mxPoint x="-2" y="36" as="offset" />
          </mxGeometry>
        </mxCell>
        <mxCell id="u8pDIgjHImMrnJN4NwCg-41" style="edgeStyle=orthogonalEdgeStyle;rounded=0;orthogonalLoop=1;jettySize=auto;html=1;entryX=0.5;entryY=1;entryDx=0;entryDy=0;" edge="1" parent="1" source="u8pDIgjHImMrnJN4NwCg-1" target="u8pDIgjHImMrnJN4NwCg-40">
          <mxGeometry relative="1" as="geometry" />
        </mxCell>
        <mxCell id="u8pDIgjHImMrnJN4NwCg-43" style="edgeStyle=orthogonalEdgeStyle;rounded=0;orthogonalLoop=1;jettySize=auto;html=1;entryX=0.5;entryY=1;entryDx=0;entryDy=0;" edge="1" parent="1" source="u8pDIgjHImMrnJN4NwCg-1" target="u8pDIgjHImMrnJN4NwCg-39">
          <mxGeometry relative="1" as="geometry" />
        </mxCell>
        <mxCell id="u8pDIgjHImMrnJN4NwCg-1" value="Usuario" style="rounded=0;whiteSpace=wrap;html=1;" vertex="1" parent="1">
          <mxGeometry x="150" y="130" width="90" height="50" as="geometry" />
        </mxCell>
        <mxCell id="u8pDIgjHImMrnJN4NwCg-5" style="edgeStyle=orthogonalEdgeStyle;rounded=0;orthogonalLoop=1;jettySize=auto;html=1;entryX=1;entryY=0.5;entryDx=0;entryDy=0;" edge="1" parent="1" source="u8pDIgjHImMrnJN4NwCg-2" target="u8pDIgjHImMrnJN4NwCg-4">
          <mxGeometry relative="1" as="geometry" />
        </mxCell>
        <mxCell id="u8pDIgjHImMrnJN4NwCg-9" value="(0,n)" style="edgeLabel;html=1;align=center;verticalAlign=middle;resizable=0;points=[];" vertex="1" connectable="0" parent="u8pDIgjHImMrnJN4NwCg-5">
          <mxGeometry x="-0.6683" y="-1" relative="1" as="geometry">
            <mxPoint as="offset" />
          </mxGeometry>
        </mxCell>
        <mxCell id="u8pDIgjHImMrnJN4NwCg-21" style="edgeStyle=orthogonalEdgeStyle;rounded=0;orthogonalLoop=1;jettySize=auto;html=1;entryX=0.5;entryY=0;entryDx=0;entryDy=0;" edge="1" parent="1" source="u8pDIgjHImMrnJN4NwCg-2" target="u8pDIgjHImMrnJN4NwCg-20">
          <mxGeometry relative="1" as="geometry" />
        </mxCell>
        <mxCell id="u8pDIgjHImMrnJN4NwCg-25" value="(1,1)" style="edgeLabel;html=1;align=center;verticalAlign=middle;resizable=0;points=[];" vertex="1" connectable="0" parent="u8pDIgjHImMrnJN4NwCg-21">
          <mxGeometry x="-0.7385" y="1" relative="1" as="geometry">
            <mxPoint x="53" y="66" as="offset" />
          </mxGeometry>
        </mxCell>
        <mxCell id="u8pDIgjHImMrnJN4NwCg-48" style="edgeStyle=orthogonalEdgeStyle;rounded=0;orthogonalLoop=1;jettySize=auto;html=1;entryX=0.5;entryY=1;entryDx=0;entryDy=0;" edge="1" parent="1" source="u8pDIgjHImMrnJN4NwCg-2" target="u8pDIgjHImMrnJN4NwCg-45">
          <mxGeometry relative="1" as="geometry" />
        </mxCell>
        <mxCell id="u8pDIgjHImMrnJN4NwCg-50" style="edgeStyle=orthogonalEdgeStyle;rounded=0;orthogonalLoop=1;jettySize=auto;html=1;entryX=0.5;entryY=1;entryDx=0;entryDy=0;" edge="1" parent="1" source="u8pDIgjHImMrnJN4NwCg-2" target="u8pDIgjHImMrnJN4NwCg-47">
          <mxGeometry relative="1" as="geometry">
            <Array as="points">
              <mxPoint x="590" y="120" />
              <mxPoint x="687" y="120" />
            </Array>
          </mxGeometry>
        </mxCell>
        <mxCell id="u8pDIgjHImMrnJN4NwCg-2" value="Gif" style="rounded=0;whiteSpace=wrap;html=1;" vertex="1" parent="1">
          <mxGeometry x="540" y="130" width="100" height="50" as="geometry" />
        </mxCell>
        <mxCell id="u8pDIgjHImMrnJN4NwCg-4" value="Likea" style="rhombus;whiteSpace=wrap;html=1;" vertex="1" parent="1">
          <mxGeometry x="360" y="60" width="66" height="60" as="geometry" />
        </mxCell>
        <mxCell id="u8pDIgjHImMrnJN4NwCg-12" value="Un usuario puede dar like a ninguno o a varios gifs" style="text;html=1;align=center;verticalAlign=middle;resizable=0;points=[];autosize=1;strokeColor=none;fillColor=none;" vertex="1" parent="1">
          <mxGeometry x="410" y="178" width="290" height="30" as="geometry" />
        </mxCell>
        <mxCell id="u8pDIgjHImMrnJN4NwCg-15" value="Un gif puede tener likes de ningún o múltiples usuarios" style="text;html=1;align=center;verticalAlign=middle;resizable=0;points=[];autosize=1;strokeColor=none;fillColor=none;" vertex="1" parent="1">
          <mxGeometry x="40" y="178" width="320" height="30" as="geometry" />
        </mxCell>
        <mxCell id="u8pDIgjHImMrnJN4NwCg-22" style="edgeStyle=orthogonalEdgeStyle;rounded=0;orthogonalLoop=1;jettySize=auto;html=1;entryX=0.5;entryY=1;entryDx=0;entryDy=0;" edge="1" parent="1" source="u8pDIgjHImMrnJN4NwCg-18" target="u8pDIgjHImMrnJN4NwCg-20">
          <mxGeometry relative="1" as="geometry" />
        </mxCell>
        <mxCell id="u8pDIgjHImMrnJN4NwCg-23" value="(0,n)" style="edgeLabel;html=1;align=center;verticalAlign=middle;resizable=0;points=[];" vertex="1" connectable="0" parent="u8pDIgjHImMrnJN4NwCg-22">
          <mxGeometry x="-0.7882" relative="1" as="geometry">
            <mxPoint x="59" y="-30" as="offset" />
          </mxGeometry>
        </mxCell>
        <mxCell id="u8pDIgjHImMrnJN4NwCg-24" value="Un gif puede tener ningún o varios comentarios" style="text;html=1;align=center;verticalAlign=middle;resizable=0;points=[];autosize=1;strokeColor=none;fillColor=none;" vertex="1" parent="1">
          <mxGeometry x="570" y="420" width="280" height="30" as="geometry" />
        </mxCell>
        <mxCell id="u8pDIgjHImMrnJN4NwCg-26" value="Un comentario solamente aparece en un gif específico" style="text;html=1;align=center;verticalAlign=middle;resizable=0;points=[];autosize=1;strokeColor=none;fillColor=none;" vertex="1" parent="1">
          <mxGeometry x="575" y="230" width="310" height="30" as="geometry" />
        </mxCell>
        <mxCell id="u8pDIgjHImMrnJN4NwCg-28" value="" style="rhombus;whiteSpace=wrap;html=1;" vertex="1" parent="1">
          <mxGeometry x="670" y="270" width="100" height="100" as="geometry" />
        </mxCell>
        <mxCell id="u8pDIgjHImMrnJN4NwCg-20" value="Tiene" style="rhombus;whiteSpace=wrap;html=1;" vertex="1" parent="1">
          <mxGeometry x="680" y="280" width="80" height="80" as="geometry" />
        </mxCell>
        <mxCell id="u8pDIgjHImMrnJN4NwCg-29" value="" style="rounded=0;whiteSpace=wrap;html=1;" vertex="1" parent="1">
          <mxGeometry x="530" y="455" width="120" height="60" as="geometry" />
        </mxCell>
        <mxCell id="u8pDIgjHImMrnJN4NwCg-52" style="edgeStyle=orthogonalEdgeStyle;rounded=0;orthogonalLoop=1;jettySize=auto;html=1;" edge="1" parent="1" source="u8pDIgjHImMrnJN4NwCg-18">
          <mxGeometry relative="1" as="geometry">
            <mxPoint x="569.9999999999998" y="560" as="targetPoint" />
          </mxGeometry>
        </mxCell>
        <mxCell id="u8pDIgjHImMrnJN4NwCg-54" style="edgeStyle=orthogonalEdgeStyle;rounded=0;orthogonalLoop=1;jettySize=auto;html=1;" edge="1" parent="1" source="u8pDIgjHImMrnJN4NwCg-18" target="u8pDIgjHImMrnJN4NwCg-53">
          <mxGeometry relative="1" as="geometry" />
        </mxCell>
        <mxCell id="u8pDIgjHImMrnJN4NwCg-18" value="Comentario" style="rounded=0;whiteSpace=wrap;html=1;" vertex="1" parent="1">
          <mxGeometry x="540" y="460" width="100" height="50" as="geometry" />
        </mxCell>
        <mxCell id="u8pDIgjHImMrnJN4NwCg-33" value="" style="rhombus;whiteSpace=wrap;html=1;" vertex="1" parent="1">
          <mxGeometry x="145" y="310" width="100" height="100" as="geometry" />
        </mxCell>
        <mxCell id="u8pDIgjHImMrnJN4NwCg-30" value="Comenta" style="rhombus;whiteSpace=wrap;html=1;" vertex="1" parent="1">
          <mxGeometry x="155" y="320" width="80" height="80" as="geometry" />
        </mxCell>
        <mxCell id="u8pDIgjHImMrnJN4NwCg-32" style="edgeStyle=orthogonalEdgeStyle;rounded=0;orthogonalLoop=1;jettySize=auto;html=1;entryX=0.438;entryY=1;entryDx=0;entryDy=0;entryPerimeter=0;" edge="1" parent="1" source="u8pDIgjHImMrnJN4NwCg-29" target="u8pDIgjHImMrnJN4NwCg-30">
          <mxGeometry relative="1" as="geometry" />
        </mxCell>
        <mxCell id="u8pDIgjHImMrnJN4NwCg-34" value="(0,n)" style="edgeLabel;html=1;align=center;verticalAlign=middle;resizable=0;points=[];" vertex="1" connectable="0" parent="u8pDIgjHImMrnJN4NwCg-32">
          <mxGeometry x="-0.5341" y="-2" relative="1" as="geometry">
            <mxPoint x="-101" y="2" as="offset" />
          </mxGeometry>
        </mxCell>
        <mxCell id="u8pDIgjHImMrnJN4NwCg-36" value="Un usuario puede tener varios comentarios" style="text;html=1;align=center;verticalAlign=middle;resizable=0;points=[];autosize=1;strokeColor=none;fillColor=none;" vertex="1" parent="1">
          <mxGeometry x="145" y="498" width="250" height="30" as="geometry" />
        </mxCell>
        <mxCell id="u8pDIgjHImMrnJN4NwCg-37" value="Un comentario es de uno y sólamente un usuario" style="text;html=1;align=center;verticalAlign=middle;resizable=0;points=[];autosize=1;strokeColor=none;fillColor=none;" vertex="1" parent="1">
          <mxGeometry x="55" y="270" width="290" height="30" as="geometry" />
        </mxCell>
        <mxCell id="u8pDIgjHImMrnJN4NwCg-38" value="Nom" style="ellipse;whiteSpace=wrap;html=1;fontStyle=4" vertex="1" parent="1">
          <mxGeometry x="40" y="50" width="55" height="40" as="geometry" />
        </mxCell>
        <mxCell id="u8pDIgjHImMrnJN4NwCg-39" value="Pass" style="ellipse;whiteSpace=wrap;html=1;" vertex="1" parent="1">
          <mxGeometry x="100" width="55" height="40" as="geometry" />
        </mxCell>
        <mxCell id="u8pDIgjHImMrnJN4NwCg-40" value="Img" style="ellipse;whiteSpace=wrap;html=1;" vertex="1" parent="1">
          <mxGeometry x="180" y="30" width="55" height="40" as="geometry" />
        </mxCell>
        <mxCell id="u8pDIgjHImMrnJN4NwCg-42" style="edgeStyle=orthogonalEdgeStyle;rounded=0;orthogonalLoop=1;jettySize=auto;html=1;entryX=0.589;entryY=1.055;entryDx=0;entryDy=0;entryPerimeter=0;" edge="1" parent="1" source="u8pDIgjHImMrnJN4NwCg-1" target="u8pDIgjHImMrnJN4NwCg-38">
          <mxGeometry relative="1" as="geometry" />
        </mxCell>
        <mxCell id="u8pDIgjHImMrnJN4NwCg-45" value="gid" style="ellipse;whiteSpace=wrap;html=1;fontStyle=4" vertex="1" parent="1">
          <mxGeometry x="520" y="50" width="55" height="40" as="geometry" />
        </mxCell>
        <mxCell id="u8pDIgjHImMrnJN4NwCg-47" value="likes" style="ellipse;whiteSpace=wrap;html=1;" vertex="1" parent="1">
          <mxGeometry x="660" y="50" width="55" height="40" as="geometry" />
        </mxCell>
        <mxCell id="u8pDIgjHImMrnJN4NwCg-51" value="Text" style="ellipse;whiteSpace=wrap;html=1;" vertex="1" parent="1">
          <mxGeometry x="530" y="562" width="70" height="38" as="geometry" />
        </mxCell>
        <mxCell id="u8pDIgjHImMrnJN4NwCg-53" value="&lt;u&gt;nro_com&lt;/u&gt;" style="ellipse;whiteSpace=wrap;html=1;" vertex="1" parent="1">
          <mxGeometry x="620" y="566" width="70" height="38" as="geometry" />
        </mxCell>
      </root>
    </mxGraphModel>
  </diagram>
</mxfile>
